<svg width="1423" height="309" viewBox="0 0 1423 309" fill="none" xmlns="http://www.w3.org/2000/svg">
<path d="M753.981 186.511C763.351 186.691 771.941 186.871 780.451 186.271C797.901 185.041 808.821 171.141 809.201 154.311C809.481 141.701 801.661 130.211 787.891 130.081L731.701 129.561L717.551 203.281L700.901 203.391L666.331 145.051L654.911 203.292L635.991 203.271L653.151 113.931L670.571 114.071L704.471 171.491L716.051 113.731L790.551 113.971C805.121 114.021 819.381 122.001 825.151 135.271C831.621 150.141 829.711 167.181 820.211 181.221C799.801 211.381 763.971 201.971 731.611 203.471L743.941 141.571L762.711 141.641L753.981 186.511Z" fill="white"/>
<path d="M597.391 202.881C579.121 208.261 560.771 205.301 547.011 192.221L557.141 175.351C562.451 183.141 570.141 188.071 579.961 188.481C599.551 189.301 614.181 175.091 615.271 155.741C616.071 141.541 607.171 130.121 592.751 128.821C574.211 127.151 558.281 139.131 555.001 157.561C552.111 173.831 543.491 188.631 529.091 197.371C513.351 206.921 494.031 207.741 477.161 200.911C465.441 196.171 457.411 186.181 455.181 173.831C449.201 140.611 474.941 111.351 508.501 112.071C521.811 112.351 533.791 115.641 542.501 126.391L530.141 139.401C524.661 132.271 517.571 128.711 508.521 128.521C496.971 128.281 487.311 133.341 480.941 141.731C474.191 150.621 471.551 162.471 475.601 173.341C479.041 182.581 487.791 187.271 497.161 188.181C517.421 190.141 534.091 176.951 536.571 156.961C539.961 129.671 564.041 111.411 591.401 112.071C606.471 112.441 621.861 117.941 629.001 131.821C643.441 159.871 627.911 193.891 597.391 202.881Z" fill="white"/>
<path d="M441.591 165.042L397.141 165.282L392.991 187.362L445.231 187.572L442.131 203.602L370.671 203.352L387.881 113.652L456.361 113.602L453.431 129.132L404.341 129.152L400.191 149.692L443.991 150.072L441.591 165.042Z" fill="white"/>
<path d="M348.851 200.512C328.151 209.052 305.811 206.182 286.561 194.382L295.591 179.052C307.831 190.012 344.411 194.542 346.551 178.672C346.921 175.952 343.491 170.762 340.461 169.862L318.421 163.312C311.411 161.232 303.331 157.542 300.591 150.042C295.861 137.072 303.461 121.882 316.441 116.742C334.611 109.542 354.671 110.432 371.771 120.082L363.941 134.892C351.771 125.082 320.301 124.962 318.401 138.232C316.301 152.902 353.401 148.392 362.641 164.262C370.371 177.532 363.601 194.432 348.851 200.512Z" fill="white"/>
<path d="M247.101 93.5311C261.881 93.5411 270.971 109.711 263.281 122.341L245.321 151.861C241.511 158.121 234.711 161.951 227.371 161.951H159.881C148.061 161.951 137.501 169.321 133.431 180.421L130.141 189.391H196.371L185.251 210.781C183.901 213.381 181.221 215.011 178.291 215.011H93.451L109.391 171.591C117.171 150.411 137.331 136.341 159.891 136.341H224.791L235.251 119.151L127.191 119.071C121.101 119.071 115.311 116.411 111.341 111.791L95.5711 93.4512L247.101 93.5311Z" fill="white"/>
<path d="M1208.65 203.441L1219.13 147.521L1184.86 191.691H1173.89L1154.85 147.801L1144.03 203.441H1125.23L1142.44 113.961L1159.85 113.621L1182.93 168.661L1226.05 113.701L1244.21 113.961L1227.35 203.441H1208.65Z" fill="white"/>
<path d="M909.541 203.441L915.851 171.061C917.151 164.451 923.321 160.891 929.491 160.851L961.001 160.661C968.441 160.621 975.611 156.011 977.961 149.321C979.571 144.731 979.261 139.491 976.921 135.801C974.531 132.041 969.271 129.661 963.971 129.661L849.001 129.651L833.131 113.751L970.901 113.891C980.491 113.901 990.551 119.081 995.091 126.591C1001.15 136.601 999.771 148.641 993.951 159.401C982.911 179.821 953.721 176.901 934.021 177.181L928.841 203.451H909.541V203.441Z" fill="white"/>
<path d="M1313.68 165.151L1269.83 165.091L1265.31 186.581L1317.17 186.751L1314.11 203.441H1242.81L1260.22 113.711L1329.14 113.671L1326.25 129.601L1276.92 129.521L1272.79 149.271L1316.53 149.641L1313.68 165.151Z" fill="white"/>
<path d="M1109.62 203.442H1089.7L1107.07 113.592L1126.47 113.932L1109.62 203.442Z" fill="white"/>
<path d="M1058.29 203.442L1044.69 176.732L1022.9 176.682L1017.72 203.452H998.291L1015.69 113.722L1061.09 114.032C1069.56 114.092 1079.16 118.342 1083.95 124.922C1090.41 133.772 1090.03 144.702 1086.15 154.822C1082.85 163.442 1074.11 170.232 1063.88 173.852L1079.32 203.452H1058.29V203.442ZM1066.97 135.592C1065.07 132.132 1058.92 129.722 1055.43 129.712L1032.09 129.642L1026.28 160.512C1040.63 160.052 1059.78 163.912 1066.67 151.462C1069.11 147.042 1070.06 141.222 1066.97 135.592Z" fill="white"/>
</svg>
